<?xml version="1.0" encoding="utf-8"?>
<!-- Generator: Adobe Illustrator 26.3.1, SVG Export Plug-In . SVG Version: 6.00 Build 0)  -->
<svg version="1.1" id="Ebene_1" xmlns="http://www.w3.org/2000/svg" xmlns:xlink="http://www.w3.org/1999/xlink" x="0px" y="0px"
	 viewBox="0 0 307.2 178.1" style="enable-background:new 0 0 307.2 178.1;" xml:space="preserve">
<style type="text/css">
	.st0{display:none;fill:#521751;}
	.st1{fill:#521751;}
	.st2{fill:#FFFFFF;}
	.st3{fill:url(#SVGID_1_);}
</style>
<g>
	<path class="st0" d="M68.6,114.4H51.7l-2.4,6.2H38L54.9,83h10.7l16.8,37.6H71L68.6,114.4z M60.2,93.4l-4.9,12H65L60.2,93.4z"/>
	<path class="st0" d="M130.3,115.6c-4.3,4.3-9.3,5.9-15.1,5.9c-14.7,0-20.6-9.3-20.6-19.5c0-9.7,6.4-19.9,20.6-19.9
		c5.5,0,10.3,1.9,14.6,6l-6.6,6.4c-2.8-2.6-5.5-3.2-8-3.2c-7.3,0-10,5.9-10,10.8c0,4.8,2.6,10.4,10,10.4c2.6,0,6.2-1.1,8.9-3.9
		L130.3,115.6z"/>
	<path class="st0" d="M171.3,114.4h-16.8l-2.4,6.2h-12.5L157.7,83h10.7l16.8,37.6h-11.5L171.3,114.4z M162.9,93.4l-4.8,12h9.7
		L162.9,93.4z"/>
	<path class="st0" d="M211.6,83c13.3,0,19.7,8.2,19.7,18.5s-6.2,19.1-19.7,19.1h-16.1V83L211.6,83L211.6,83z M206,111.7h5.6
		c6.7,0,9.1-5.1,9.1-10.2c0-5.2-2.6-9.6-9.1-9.6H206L206,111.7L206,111.7z"/>
	<path class="st0" d="M272.4,120.6h-30.1V83h29.4v8.9h-18.9v5.4h17.8v8.7h-17.8v5.7h19.6V120.6z"/>
	<g>
		<path class="st1" d="M182.4,155.6l-9.7,11.4h-1.9l-9.4-11.3V178h-10.5v-37.6H162l9.9,12.7l9.9-12.7h11.1V178h-10.5L182.4,155.6
			L182.4,155.6z"/>
		<path class="st1" d="M250.3,160.9c-0.3-4.4-0.3-6.2-0.3-7.6v-12.8h10.6v37.4h-9L236,157.8l0.2,8.1v12h-10.7v-37.4h9L250.3,160.9z"
			/>
		<path class="st1" d="M287.6,140.5c13.2,0,19.6,8.2,19.6,18.4c0,10.3-6.1,19-19.6,19h-16v-37.4L287.6,140.5L287.6,140.5z
			 M282.1,169h5.6c6.7,0,9.1-5,9.1-10.2c0-5.1-2.6-9.5-9.1-9.5h-5.6V169z"/>
	</g>
	<path class="st2" d="M68.6,114.4H51.7l-2.4,6.2H38L54.9,83h10.7l16.8,37.6H71L68.6,114.4z M60.2,93.4l-4.9,12H65L60.2,93.4z"/>
	<path class="st2" d="M130.3,115.6c-4.3,4.3-9.3,5.9-15.1,5.9c-14.7,0-20.6-9.3-20.6-19.5c0-9.7,6.4-19.9,20.6-19.9
		c5.5,0,10.3,1.9,14.6,6l-6.6,6.4c-2.8-2.6-5.5-3.2-8-3.2c-7.3,0-10,5.9-10,10.8c0,4.8,2.6,10.4,10,10.4c2.6,0,6.2-1.1,8.9-3.9
		L130.3,115.6z"/>
	<path class="st2" d="M171.3,114.4h-16.8l-2.4,6.2h-12.5L157.7,83h10.7l16.8,37.6h-11.5L171.3,114.4z M162.9,93.4l-4.8,12h9.7
		L162.9,93.4z"/>
	<path class="st2" d="M211.6,83c13.3,0,19.7,8.2,19.7,18.5s-6.2,19.1-19.7,19.1h-16.1V83L211.6,83L211.6,83z M206,111.7h5.6
		c6.7,0,9.1-5.1,9.1-10.2c0-5.2-2.6-9.6-9.1-9.6H206L206,111.7L206,111.7z"/>
	<path class="st2" d="M272.4,120.6h-30.1V83h29.4v8.9h-18.9v5.4h17.8v8.7h-17.8v5.7h19.6V120.6z"/>
	<g>
		<path class="st2" d="M182.4,155.6l-9.7,11.4h-1.9l-9.4-11.3V178h-10.5v-37.6H162l9.9,12.7l9.9-12.7h11.1V178h-10.5L182.4,155.6
			L182.4,155.6z"/>
		<path class="st2" d="M203.9,178.1v-37.6h10.6v37.6L203.9,178.1L203.9,178.1z"/>
		<path class="st2" d="M250.3,160.9c-0.3-4.4-0.3-6.2-0.3-7.6v-12.8h10.6v37.4h-9L236,157.8l0.2,8.1v12h-10.7v-37.4h9L250.3,160.9z"
			/>
		<path class="st2" d="M287.6,140.5c13.2,0,19.6,8.2,19.6,18.4c0,10.3-6.1,19-19.6,19h-16v-37.4L287.6,140.5L287.6,140.5z
			 M282.1,169h5.6c6.7,0,9.1-5,9.1-10.2c0-5.1-2.6-9.5-9.1-9.5h-5.6V169z"/>
	</g>
	<g>
		<path class="st2" d="M29.2,14.4c-4.2,0-17.4,0-29.2,0C0.1,1.4,13.2,0.1,14.4,0S29,1.4,29.2,14.4z"/>
		<linearGradient id="SVGID_1_" gradientUnits="userSpaceOnUse" x1="23.3389" y1="43.664" x2="89.2386" y2="74.0657">
			<stop  offset="0" style="stop-color:#F58F00"/>
			<stop  offset="1" style="stop-color:#FFBD61"/>
		</linearGradient>
		<path class="st3" d="M89.4,16.2C87.2,1.2,75,0.4,75,0.4H17c4.2,0.9,11.7,4,12.1,13.4l0,0l0.4,100.6h4.1l18.5-39h16l18.4,39h2.8
			C89.4,114.4,89.8,28.6,89.4,16.2z"/>
	</g>
</g>
</svg>
